<?xml version="1.0" encoding="UTF-8"?>
<svg id="Layer_1" xmlns="http://www.w3.org/2000/svg" version="1.1" viewBox="0 0 751 262">
  <defs>
    <style>
      .st0 {
        fill: #000000;
        fill-rule: evenodd;
      }
    </style>
  </defs>
  <g id="Layer_11" data-name="Layer_1">
    <g>
      <polygon class="st0" points="255.688 94.909 241.846 77.688 197.741 117.164 195.885 115.433 195.933 112.972 196.427 91.593 197.638 38.755 174.309 35.779 173.028 91.596 161.291 114.633 143.694 149.19 131.571 172.994 189.668 227.2 208.818 214.187 166.523 174.722 168.464 172.989 171.153 172.988 194.557 172.977 252.381 172.968 256.141 151.582 195.05 151.598 195.105 149.135 197.046 147.402 213.941 132.279 255.688 94.909"/>
      <polygon class="st0" points="149.694 81.664 133.494 66.549 93.463 29.2 74.313 42.212 116.599 81.672 114.653 83.414 111.971 83.413 88.572 83.416 30.736 83.434 26.984 104.819 88.079 104.795 88.016 107.253 86.083 108.991 69.188 124.114 27.435 161.486 41.278 178.713 85.388 139.229 87.246 140.966 87.189 143.423 86.704 164.806 85.484 217.639 108.815 220.621 110.101 164.797 122.752 139.957 140.223 105.652 151.553 83.407 149.694 81.664"/>
      <path class="st0" d="M663.541,80.458c-21.992,0-37.636,15.623-37.636,37.838s15.643,37.844,37.636,37.844c22.217,0,37.636-15.623,37.636-37.844s-15.418-37.838-37.636-37.838ZM577.617,61.977c10.658,0,20.86,3.302,27.434,8.582l-9.52,17.159c-6.349-3.958-12.247-5.718-19.046-5.718-19.271,0-31.963,14.737-31.963,37.177v53.461h-21.091V63.961h18.821l.225,18.258c8.844-13.639,20.178-20.242,35.14-20.242h0ZM660.82,61.539c18.365,0,33.783,7.041,42.621,18.482l.225-16.06h18.59v108.677h-18.59l-.225-16.06c-8.839,11.441-24.257,18.482-42.621,18.482-32.876,0-56-23.32-56-56.763s23.125-56.757,56-56.757h0ZM488.98,52.742l-14.511,16.935c-8.163-5.056-19.271-7.702-31.743-7.702-34.233,0-59.397,22.882-59.397,54.128,0,32.995,23.356,53.898,60.079,53.898,22.899,0,37.185,9.457,37.185,24.194,0,15.18-14.968,25.085-37.636,25.085s-37.867-11.441-37.185-28.387h-20.854c-1.132,28.168,22.443,47.306,58.039,47.306s58.715-17.383,58.715-44.004c0-16.279-10.658-28.594-29.699-34.755,19.497-7.484,30.605-22.882,30.605-43.337,0-12.983-3.853-22.882-13.83-34.323l15.418-17.602-15.187-11.436h0ZM442.957,151.301c-23.125,0-38.543-14.081-38.543-35.198,0-20.903,15.644-35.203,38.543-35.203,23.35,0,38.537,14.081,38.537,35.203,0,20.674-15.869,35.198-38.537,35.198h0ZM353.399,18.2c-8.157,0-14.286,5.723-14.286,13.644,0,7.697,6.129,13.414,14.286,13.414,8.388,0,14.286-5.718,14.286-13.414,0-7.921-5.898-13.644-14.286-13.644M342.746,172.641h21.079V63.959h-21.079v108.682Z"/>
    </g>
  </g>
</svg>
